<?xml version="1.0" standalone="no"?>
<!DOCTYPE svg PUBLIC "-//W3C//DTD SVG 20010904//EN"
 "http://www.w3.org/TR/2001/REC-SVG-20010904/DTD/svg10.dtd">
<svg version="1.0" xmlns="http://www.w3.org/2000/svg"
 width="1024.000000pt" height="1536.000000pt" viewBox="0 0 1024.000000 1536.000000"
 preserveAspectRatio="xMidYMid meet">

<g transform="translate(0.000000,1536.000000) scale(0.100000,-0.100000)"
fill="#000000" stroke="none">
<path d="M2715 14239 c-134 -20 -218 -62 -289 -140 -120 -134 -110 -364 23
-496 51 -51 163 -106 341 -169 108 -38 143 -55 173 -85 32 -32 37 -43 37 -82
0 -76 -59 -129 -156 -142 -63 -9 -204 15 -320 55 -49 16 -94 30 -100 30 -14 0
-97 -197 -90 -215 7 -19 146 -74 244 -96 112 -25 298 -35 377 -20 218 41 351
196 348 404 -3 199 -95 293 -373 378 -124 38 -216 78 -248 109 -64 61 -51 155
28 199 92 51 232 45 363 -16 42 -20 79 -34 81 -32 2 2 27 53 55 114 59 125 61
119 -38 156 -120 45 -333 68 -456 48z"/>
<path d="M3876 13900 c-195 -35 -339 -152 -407 -328 -29 -78 -37 -225 -16
-308 27 -105 66 -174 137 -244 108 -107 213 -150 367 -150 103 0 172 14 248
52 129 64 217 157 266 286 27 72 37 229 19 310 -48 217 -242 373 -481 386 -46
3 -106 1 -133 -4z m211 -262 c105 -49 165 -197 129 -320 -36 -125 -109 -187
-227 -196 -60 -4 -75 -1 -124 23 -98 47 -154 158 -141 277 7 72 24 114 66 162
73 82 191 104 297 54z"/>
<path d="M5130 13892 c-72 -24 -143 -66 -175 -104 l-25 -30 0 46 c0 58 -7 62
-159 71 l-113 8 7 -489 c4 -269 10 -492 14 -495 3 -4 60 -4 126 0 l120 6 6
300 c3 165 7 310 8 322 0 12 16 39 33 59 86 98 250 100 315 5 30 -44 32 -71
41 -401 l7 -285 45 -3 c25 -2 82 -1 128 3 l82 7 0 317 0 316 25 37 c37 55 100
81 185 76 63 -3 73 -7 105 -38 20 -19 40 -52 46 -73 6 -22 13 -175 17 -341 l7
-301 120 4 c66 2 123 5 128 8 9 5 8 338 -2 564 -8 159 -11 182 -34 233 -38 84
-63 113 -120 146 -71 41 -165 56 -252 41 -79 -14 -169 -57 -226 -108 l-40 -36
-52 51 c-29 28 -74 61 -102 73 -69 31 -190 36 -265 11z"/>
<path d="M6725 13904 c-11 -2 -45 -9 -75 -15 -75 -15 -210 -68 -210 -82 0 -34
60 -192 72 -190 7 1 45 14 83 29 100 38 260 46 329 16 56 -25 76 -64 76 -146
l0 -54 -46 14 c-115 34 -315 26 -413 -17 -55 -24 -115 -80 -144 -134 -31 -57
-31 -200 -1 -266 31 -67 87 -124 152 -156 52 -25 67 -28 167 -28 100 0 116 3
170 28 32 15 74 39 93 53 18 14 35 24 37 22 2 -2 7 -19 10 -37 3 -19 8 -38 10
-41 3 -4 58 -6 122 -4 l118 3 0 108 c1 195 -14 557 -26 618 -29 157 -129 246
-309 276 -54 9 -176 10 -215 3z m195 -600 c39 -8 72 -19 74 -22 2 -4 6 -28 10
-54 8 -54 -6 -72 -89 -116 -67 -35 -188 -39 -232 -6 -44 32 -58 69 -44 115 26
86 131 117 281 83z"/>
<path d="M7998 13900 c-95 -16 -226 -98 -243 -151 -13 -39 -25 -17 -25 45 l0
64 -32 5 c-18 4 -78 9 -132 13 l-99 7 7 -489 c4 -269 11 -492 14 -496 4 -4 61
-4 127 0 l120 7 5 290 c3 195 9 297 17 310 20 35 77 83 118 101 22 9 81 22
130 28 l90 12 3 124 c3 151 6 148 -100 130z"/>
<path d="M4891 12216 c2 -58 0 -108 -4 -112 -4 -4 -7 -2 -7 4 0 20 -57 42
-107 42 -95 0 -153 -68 -153 -178 0 -65 21 -108 73 -146 41 -30 134 -29 176 2
30 22 31 22 31 2 0 -16 7 -20 30 -20 l30 0 0 255 0 255 -36 0 -36 0 3 -104z
m-25 -160 c30 -30 34 -41 34 -84 0 -40 -5 -54 -26 -75 -46 -47 -126 -45 -169
3 -23 25 -30 93 -15 130 16 38 53 59 104 60 30 0 45 -7 72 -34z"/>
<path d="M5815 12271 c-109 -28 -167 -108 -167 -228 1 -142 94 -236 233 -235
67 0 123 26 167 76 73 83 68 240 -11 324 -48 52 -152 81 -222 63z m133 -80
c51 -26 82 -84 82 -153 0 -68 -25 -116 -76 -145 -75 -43 -175 -17 -218 57 -29
49 -29 148 0 187 53 71 136 93 212 54z"/>
<path d="M1720 12243 c-81 -42 -114 -93 -118 -189 -4 -65 -1 -81 23 -129 46
-96 160 -143 268 -111 28 9 66 27 82 40 l30 24 -24 26 c-24 26 -25 26 -45 7
-49 -46 -121 -53 -186 -18 -56 29 -80 74 -80 148 0 66 25 111 79 143 47 27
123 26 163 -4 l30 -22 20 20 c12 11 18 27 15 35 -9 24 -79 51 -142 55 -51 3
-69 -1 -115 -25z"/>
<path d="M6200 12040 l0 -230 36 0 36 0 -7 175 c-5 100 -4 175 1 175 5 -1 22
-22 39 -48 16 -26 66 -104 112 -174 80 -124 83 -128 118 -128 l35 0 0 230 0
230 -36 0 -36 0 7 -176 c5 -105 4 -174 -1 -171 -5 3 -59 82 -119 176 -110 170
-110 170 -147 171 l-38 0 0 -230z"/>
<path d="M6795 12251 c-79 -37 -125 -111 -125 -202 0 -72 17 -122 58 -169 60
-71 134 -92 226 -66 89 26 136 102 136 220 l0 46 -90 0 -90 0 0 -30 c0 -30 1
-30 55 -30 55 0 55 0 55 -30 0 -137 -194 -166 -261 -40 -23 42 -25 129 -4 169
40 79 134 110 214 71 l45 -22 18 22 c22 27 18 35 -32 60 -51 26 -150 27 -205
1z"/>
<path d="M3653 12250 c-18 -7 -21 -15 -18 -54 l4 -46 -35 0 c-31 0 -34 -2 -34
-30 0 -28 3 -30 35 -30 l35 0 0 -116 c0 -114 0 -116 29 -145 23 -22 39 -29 69
-29 58 0 72 8 72 40 0 27 -2 28 -34 23 -26 -4 -39 0 -55 16 -18 18 -21 33 -21
116 l0 95 54 0 c53 0 53 0 52 30 -1 29 -2 30 -53 30 l-53 0 0 55 c0 58 -5 62
-47 45z"/>
<path d="M2147 12140 c-73 -40 -104 -121 -83 -217 15 -66 125 -133 193 -117
122 28 183 142 134 250 -41 91 -157 131 -244 84z m166 -80 c21 -24 27 -40 27
-76 0 -56 -12 -79 -50 -99 -50 -26 -97 -20 -136 19 -27 27 -34 42 -34 73 0 44
30 100 63 113 40 18 99 4 130 -30z"/>
<path d="M2610 12149 c-13 -5 -33 -17 -42 -26 -17 -15 -18 -15 -18 5 0 18 -6
22 -30 22 l-30 0 0 -78 c0 -44 -3 -120 -6 -170 l-7 -92 37 0 36 0 0 125 c0
121 1 125 25 141 37 24 91 22 118 -4 20 -20 22 -34 26 -142 l3 -120 32 0 32 0
-4 128 c-4 133 -16 177 -52 199 -28 18 -91 24 -120 12z"/>
<path d="M2948 12140 c-92 -49 -125 -175 -69 -266 37 -61 147 -91 232 -63 52
18 65 33 51 63 l-11 24 -38 -19 c-65 -33 -157 -18 -183 30 -20 39 -14 41 119
41 147 0 149 2 136 81 -18 104 -139 160 -237 109z m147 -65 c14 -13 25 -36 25
-50 l0 -25 -100 0 c-84 0 -100 2 -100 16 0 71 122 113 175 59z"/>
<path d="M3345 12146 c-141 -61 -131 -286 14 -335 49 -16 76 -14 132 10 52 23
57 32 35 62 -13 17 -16 17 -45 3 -50 -26 -108 -21 -142 13 -24 25 -29 38 -29
79 0 93 72 142 155 108 35 -15 40 -15 57 0 25 23 23 27 -21 52 -44 25 -110 28
-156 8z"/>
<path d="M3937 12145 c-49 -17 -51 -19 -43 -49 6 -24 7 -25 41 -10 78 32 155
7 155 -51 0 -25 -1 -25 -80 -25 -73 0 -82 -2 -111 -28 -58 -52 -34 -141 46
-171 39 -15 52 -13 138 24 12 5 17 3 17 -9 0 -11 9 -16 32 -16 l31 0 -7 137
c-5 98 -11 144 -22 161 -32 48 -120 65 -197 37z m151 -222 c3 -27 -2 -34 -27
-47 -57 -30 -131 -11 -131 32 0 36 31 53 94 50 61 -3 61 -3 64 -35z"/>
<path d="M4380 12153 c-8 -3 -28 -15 -44 -26 l-29 -21 5 22 c5 19 2 22 -28 22
l-34 0 -1 -147 c0 -82 -2 -158 -3 -170 -2 -20 2 -23 31 -23 l33 0 0 125 c0
122 0 125 25 141 40 26 103 24 126 -5 16 -20 19 -40 19 -142 l0 -119 37 0 36
0 -6 130 c-6 142 -20 183 -68 207 -25 13 -73 16 -99 6z"/>
<path d="M5135 12141 c-90 -56 -120 -153 -75 -241 30 -59 85 -91 153 -91 64 0
104 17 141 61 33 39 40 67 34 135 -5 63 -38 113 -91 139 -47 22 -124 21 -162
-3z m135 -56 c68 -35 79 -135 20 -187 -59 -53 -159 -26 -179 48 -29 106 64
188 159 139z"/>
<path d="M7213 12140 c-89 -54 -66 -138 48 -182 73 -28 92 -53 59 -80 -27 -22
-59 -23 -108 -2 -36 14 -38 14 -55 -8 -17 -21 -18 -23 -1 -35 9 -7 41 -18 70
-24 88 -20 164 13 180 78 12 45 -14 74 -98 116 -58 27 -78 42 -78 57 0 37 41
45 134 28 12 -2 21 5 27 20 8 20 4 25 -26 38 -48 20 -114 18 -152 -6z"/>
<path d="M8535 12146 c-130 -58 -139 -261 -15 -323 52 -27 125 -30 173 -9 55
25 59 30 47 58 l-12 25 -36 -19 c-42 -21 -106 -23 -141 -5 -14 6 -33 27 -44
45 l-19 32 135 0 c124 0 135 1 140 19 7 30 -9 100 -30 129 -42 56 -131 78
-198 48z m140 -71 c14 -13 25 -36 25 -50 l0 -26 -102 3 c-97 3 -103 4 -100 23
12 69 126 101 177 50z"/>
<path d="M7709 12126 c-20 -14 -44 -41 -53 -61 -22 -45 -22 -133 -2 -174 41
-78 155 -107 230 -56 l36 24 0 -89 0 -90 35 0 35 0 0 123 c0 67 -3 173 -7 235
l-6 112 -29 0 c-23 0 -28 -4 -28 -26 l0 -25 -33 25 c-47 36 -127 36 -178 2z
m161 -51 c37 -19 50 -43 50 -94 0 -59 -40 -101 -103 -108 -43 -5 -49 -3 -82
30 -29 29 -35 42 -35 77 0 34 6 48 34 76 39 39 86 45 136 19z"/>
<path d="M8060 12037 c0 -61 4 -127 10 -146 22 -77 86 -107 165 -76 25 9 45
21 45 26 0 5 5 9 10 9 6 0 10 -9 10 -20 0 -16 7 -20 30 -20 l30 0 0 63 c0 35
-3 112 -7 170 l-6 107 -31 0 -31 0 3 -124 3 -125 -27 -17 c-37 -25 -89 -23
-116 3 -19 20 -21 33 -22 142 l-1 121 -32 0 -33 0 0 -113z"/>
<path d="M3352 11385 c1 -52 2 -95 0 -95 -2 0 -17 10 -33 23 -42 30 -126 31
-166 1 -52 -38 -73 -81 -73 -146 0 -109 49 -168 146 -176 42 -3 61 0 89 17 44
26 45 26 45 1 0 -16 7 -20 30 -20 l30 0 0 245 0 245 -36 0 -36 0 4 -95z m-55
-122 c54 -25 79 -103 52 -156 -19 -38 -51 -57 -97 -57 -37 0 -50 6 -78 34 -28
28 -34 41 -34 78 0 51 21 85 64 104 41 17 51 17 93 -3z"/>
<path d="M2927 11451 c-10 -39 3 -62 32 -59 22 3 26 8 26 38 0 30 -4 35 -26
38 -20 2 -28 -2 -32 -17z"/>
<path d="M2266 11317 c-106 -60 -114 -227 -14 -298 48 -34 134 -38 187 -8 44
25 49 35 27 64 -14 19 -15 19 -34 2 -29 -26 -92 -33 -129 -14 -30 16 -63 69
-63 102 0 9 7 32 16 51 28 59 98 80 158 49 28 -15 31 -14 49 4 56 56 -111 97
-197 48z"/>
<path d="M2549 11336 c-2 -2 -2 -68 1 -146 l5 -142 33 -29 c40 -36 109 -40
160 -9 40 25 42 25 42 0 0 -16 7 -20 30 -20 l30 0 0 93 c0 50 -3 129 -7 175
l-6 82 -28 0 -29 0 0 -130 0 -129 -30 -16 c-39 -20 -83 -19 -111 4 -23 18 -24
27 -27 145 l-4 126 -27 0 c-15 0 -30 -2 -32 -4z"/>
<path d="M2930 11165 l0 -175 30 0 30 0 0 175 0 175 -30 0 -30 0 0 -175z"/>
<path d="M3567 11325 c-48 -16 -47 -16 -40 -44 4 -18 10 -21 27 -16 38 12 104
18 129 11 13 -3 29 -17 35 -31 23 -49 18 -54 -55 -52 -40 1 -82 -4 -101 -12
-68 -29 -79 -116 -21 -165 41 -34 123 -37 163 -5 l27 21 6 -21 c4 -15 13 -21
35 -21 l29 0 -7 128 c-4 70 -13 142 -20 160 -23 57 -119 79 -207 47z m161
-221 c3 -27 -2 -33 -31 -48 -19 -9 -46 -16 -59 -16 -33 0 -68 27 -68 54 0 37
19 47 90 44 65 -3 65 -3 68 -34z"/>
<path d="M3898 11333 c-16 -4 -18 -20 -20 -144 -1 -76 -2 -151 -2 -166 -1 -24
3 -28 32 -31 l32 -3 0 124 c0 107 2 126 18 140 37 34 110 30 134 -7 4 -6 8
-64 8 -128 l0 -118 35 0 35 0 0 115 c0 101 2 117 20 135 44 44 116 33 131 -20
4 -14 7 -74 8 -133 l1 -108 31 3 31 3 -1 129 c-2 143 -12 176 -61 201 -47 24
-104 15 -161 -26 -13 -10 -21 -8 -40 10 -13 12 -34 24 -47 28 -33 8 -91 -3
-112 -22 -22 -20 -30 -19 -30 5 0 20 -8 22 -42 13z"/>
<path d="M4750 11329 c-63 -25 -101 -87 -101 -164 0 -61 18 -102 61 -138 54
-46 151 -49 210 -7 34 24 35 28 16 52 -12 16 -15 16 -52 -2 -21 -11 -49 -20
-62 -20 -57 0 -112 56 -112 115 0 58 55 115 110 115 12 0 37 -7 56 -16 33 -16
36 -16 49 2 23 30 18 41 -25 58 -45 18 -112 20 -150 5z"/>
<path d="M5091 11323 c-66 -33 -104 -128 -82 -209 12 -44 60 -97 104 -113 100
-38 214 22 237 125 17 74 -13 146 -80 192 -41 27 -128 30 -179 5z m166 -75
c28 -29 40 -90 24 -130 -27 -71 -131 -87 -183 -28 -46 51 -34 144 23 177 36
20 106 10 136 -19z"/>
<path d="M5458 11332 l-28 -3 0 -170 0 -170 33 3 32 3 5 130 c5 126 6 130 30
142 30 15 65 16 90 3 28 -15 40 -65 40 -174 l0 -101 30 -2 30 -2 0 114 c0 104
2 116 23 139 31 36 76 43 107 18 24 -19 25 -27 30 -144 l5 -123 30 0 30 0 2
100 c2 189 -23 240 -120 240 -38 0 -60 -6 -84 -23 l-32 -22 -37 25 c-45 31
-97 32 -141 5 -26 -15 -33 -17 -33 -5 0 18 -9 22 -42 17z"/>
<path d="M6263 11327 c-46 -17 -56 -29 -40 -51 10 -14 17 -15 40 -7 38 15 109
14 130 -1 9 -7 20 -28 23 -47 l7 -33 -50 7 c-104 14 -179 -31 -177 -108 1 -33
8 -47 33 -69 26 -23 40 -28 85 -28 38 0 60 6 79 20 14 11 28 20 31 20 3 0 6
-9 6 -20 0 -16 7 -20 31 -20 l32 0 -8 133 c-4 83 -13 142 -22 160 -26 51 -123
72 -200 44z m150 -194 c4 -2 7 -17 7 -32 0 -49 -102 -81 -142 -44 -34 30 -20
74 27 86 20 5 94 -1 108 -10z"/>
<path d="M6576 11175 c-4 -91 -4 -170 -1 -175 3 -6 19 -10 36 -10 l29 0 0 130
0 129 30 16 c42 22 77 19 105 -10 24 -23 25 -30 25 -145 l0 -121 33 3 32 3 3
120 c3 129 10 147 59 160 30 7 79 -10 87 -31 3 -7 8 -65 12 -129 5 -83 10
-115 20 -115 7 0 20 -3 29 -7 16 -6 17 5 13 133 -3 110 -7 144 -21 165 -36 54
-111 64 -171 24 -45 -30 -44 -30 -72 -4 -33 31 -95 36 -144 10 -39 -20 -40
-20 -40 -1 0 15 -7 20 -28 20 l-29 0 -7 -165z"/>
<path d="M7255 11321 c-40 -24 -61 -49 -80 -94 -20 -48 -19 -83 4 -133 49
-109 192 -138 280 -58 91 82 70 232 -41 290 -39 20 -127 18 -163 -5z m161 -75
c29 -29 34 -41 34 -80 0 -36 -6 -52 -29 -78 -26 -29 -35 -33 -81 -33 -46 0
-55 4 -81 33 -23 25 -29 42 -29 75 1 76 40 116 114 117 30 0 45 -7 72 -34z"/>
<path d="M7704 11321 c-18 -11 -34 -25 -37 -33 -3 -7 -6 -1 -6 15 -1 23 -5 27
-31 27 l-30 0 -2 -150 c-1 -82 -2 -158 -2 -167 -1 -14 7 -18 33 -18 l33 0 -1
112 c-2 108 -1 114 23 138 17 17 36 25 61 25 33 0 35 2 35 35 0 30 -3 35 -22
35 -13 0 -37 -9 -54 -19z"/>
<path d="M5275 9795 c-104 -19 -180 -40 -385 -107 -102 -33 -239 -71 -305 -85
-66 -13 -123 -27 -128 -30 -4 -3 -12 -16 -18 -29 -11 -29 5 -73 50 -137 22
-32 30 -58 35 -106 11 -118 71 -187 155 -179 61 6 113 42 147 100 16 27 33 48
39 48 5 0 43 -9 84 -20 173 -46 340 -6 478 115 28 25 56 45 62 45 6 0 11 -15
11 -32 0 -46 57 -171 128 -281 99 -155 96 -146 83 -261 -6 -56 -13 -137 -16
-181 -6 -99 -19 -144 -46 -174 -23 -25 -19 -25 -190 -5 -60 7 -154 -13 -292
-61 -57 -20 -90 -25 -171 -25 -56 0 -121 -6 -146 -14 -44 -13 -45 -14 -48 -58
-7 -99 68 -212 178 -268 103 -53 382 -50 523 6 147 57 249 156 284 274 13 45
16 90 13 245 -6 288 -3 335 20 397 11 30 33 67 49 82 33 32 102 46 126 26 9
-7 17 -11 19 -9 13 13 38 137 43 214 12 188 -46 277 -206 318 -46 12 -54 18
-84 67 -39 66 -92 104 -172 125 -71 18 -222 18 -320 0z"/>
<path d="M1841 9334 c0 -11 3 -14 6 -6 3 7 2 16 -1 19 -3 4 -6 -2 -5 -13z"/>
<path d="M1852 9210 c0 -14 2 -19 5 -12 2 6 2 18 0 25 -3 6 -5 1 -5 -13z"/>
<path d="M5293 9013 c-19 -4 -23 -11 -23 -40 l0 -36 68 7 c37 4 71 11 75 15 4
4 5 20 1 35 -6 24 -10 26 -53 25 -25 -1 -56 -4 -68 -6z"/>
<path d="M1190 8463 l0 -518 -71 125 c-120 211 -201 341 -215 347 -13 5 -63
-26 -64 -39 0 -8 75 -144 238 -433 110 -193 109 -190 111 -450 1 -82 4 -204 7
-270 l6 -120 -46 -38 c-93 -77 -138 -176 -156 -344 -19 -169 -25 -181 -154
-283 -125 -99 -169 -152 -223 -266 -37 -77 -38 -82 -38 -194 0 -106 2 -120 29
-177 31 -69 98 -138 164 -172 32 -16 176 -61 197 -61 3 0 5 12 5 28 0 47 37
183 80 292 79 202 127 278 229 366 131 113 201 137 494 175 97 13 99 14 133
53 94 109 160 306 152 451 -3 59 -3 60 -35 63 -38 4 -99 60 -120 110 -23 56
-21 158 4 214 31 68 67 98 117 98 37 0 45 -6 101 -65 87 -94 124 -100 265 -48
228 85 417 247 462 396 14 46 24 47 33 5 4 -18 45 -111 93 -207 75 -153 86
-182 89 -235 2 -34 0 -56 -3 -49 -9 20 -73 55 -89 49 -32 -12 -16 -46 36 -74
50 -27 50 -27 45 -69 -3 -23 -14 -61 -25 -85 -11 -26 -23 -84 -29 -145 -7 -76
-15 -115 -36 -156 -71 -146 -223 -264 -364 -283 -41 -5 -57 -2 -108 24 -32 16
-90 53 -129 81 -69 51 -95 61 -95 39 0 -14 69 -78 131 -120 l48 -33 -6 -66
c-7 -87 2 -104 74 -124 144 -40 192 -82 289 -255 37 -66 71 -120 75 -120 18 0
162 125 254 221 116 121 159 193 177 298 17 98 -3 188 -76 354 -31 70 -64 158
-72 195 -20 82 -14 198 16 333 49 218 16 390 -98 511 -53 57 -105 90 -184 117
-30 10 -77 36 -104 57 -163 125 -395 173 -605 123 -190 -44 -307 -166 -409
-424 -84 -212 -144 -282 -340 -399 -71 -42 -132 -81 -135 -86 -19 -31 -22 21
-18 308 6 362 -2 322 113 547 127 246 190 372 190 378 0 3 -16 11 -36 17 -30
10 -38 10 -45 -1 -5 -8 -56 -105 -115 -216 -58 -112 -106 -203 -107 -203 -1 0
-2 217 -2 482 l0 483 -52 3 -53 3 0 -518z"/>
<path d="M4831 8938 c-51 -19 -53 -21 -47 -51 3 -17 8 -33 11 -35 8 -9 137 33
142 46 3 6 2 23 -1 37 -8 31 -31 32 -105 3z"/>
<path d="M8593 8900 c-185 -27 -352 -126 -535 -318 -100 -104 -156 -190 -185
-279 -29 -93 -30 -173 -2 -324 12 -69 19 -141 17 -184 -5 -107 -31 -149 -158
-260 -114 -101 -140 -140 -140 -213 0 -42 28 -94 62 -116 45 -28 278 -82 426
-97 61 -7 112 -15 112 -19 0 -4 -39 -10 -87 -13 -170 -12 -269 -52 -352 -141
-136 -147 -176 -182 -254 -221 -85 -42 -107 -69 -107 -128 0 -93 66 -187 165
-237 41 -20 70 -25 165 -30 83 -4 121 -10 138 -21 l23 -17 -28 -20 c-15 -10
-73 -43 -128 -71 -139 -73 -212 -147 -248 -255 -43 -126 0 -306 80 -337 31
-11 74 6 159 66 36 25 67 45 70 45 3 0 25 -20 50 -45 62 -64 88 -62 166 13 63
60 88 97 88 132 0 11 2 20 5 20 3 0 29 -17 58 -38 71 -52 106 -67 113 -47 7
18 5 28 -30 155 -14 52 -26 105 -26 118 0 22 1 22 25 6 15 -10 49 -63 84 -133
149 -297 136 -278 189 -295 61 -20 219 -42 407 -55 83 -6 185 -14 228 -17 95
-7 96 -4 31 122 -92 179 -210 333 -382 496 -171 163 -340 258 -459 258 -47 0
-33 16 20 24 65 10 161 59 190 98 57 74 71 152 41 224 -44 105 -182 255 -266
290 -27 10 -48 22 -48 26 0 12 173 46 270 53 54 4 98 12 102 18 4 7 8 32 8 57
1 44 2 46 58 78 70 40 142 104 124 110 -7 2 -41 -14 -75 -36 -137 -87 -226
-125 -276 -116 -47 8 -145 55 -198 94 -88 65 -178 216 -243 408 -50 147 -72
278 -74 435 l-1 137 55 16 c74 22 100 36 143 80 38 40 97 141 97 168 0 27 17
18 31 -16 18 -44 115 -164 180 -222 121 -109 281 -204 381 -226 49 -11 58 -10
94 8 21 11 60 41 86 66 51 50 78 57 127 32 37 -20 58 -53 76 -123 21 -82 19
-112 -15 -180 -28 -56 -83 -113 -109 -113 -71 0 -1 -424 86 -522 8 -9 37 -22
64 -28 45 -11 57 -9 164 25 64 20 182 66 262 102 167 77 168 77 160 194 -8
120 -42 178 -225 374 -52 55 -104 118 -118 141 -14 24 -38 102 -58 191 -48
211 -93 303 -206 420 -168 173 -399 249 -647 213z"/>
<path d="M5288 8793 c-39 -10 -30 -103 10 -103 41 0 58 62 26 94 -8 9 -16 15
-17 15 -1 -1 -10 -3 -19 -6z"/>
<path d="M5055 8778 c-6 -20 -25 -226 -25 -279 0 -38 4 -51 19 -59 24 -12 91
-13 110 -1 24 15 1 31 -46 31 l-45 0 7 160 c6 119 5 160 -4 160 -6 0 -14 -6
-16 -12z"/>
<path d="M4882 8738 c-17 -17 -15 -63 3 -78 22 -18 48 -8 59 22 15 44 -32 86
-62 56z"/>
<path d="M8398 8135 c-2 -3 -3 -18 0 -35 l4 -30 69 0 69 0 0 35 0 35 -68 0
c-38 0 -71 -2 -74 -5z"/>
<path d="M8049 8047 c-44 -23 -58 -49 -40 -75 7 -11 19 -9 60 13 45 22 51 29
45 48 -11 37 -18 38 -65 14z"/>
<path d="M8261 7868 c-32 -187 -35 -216 -21 -233 19 -23 103 -17 108 8 3 14
-4 17 -37 17 -38 0 -41 2 -36 23 28 130 34 247 11 247 -9 0 -18 -21 -25 -62z"/>
<path d="M8494 7906 c-3 -13 -4 -37 -2 -52 2 -23 8 -29 27 -29 31 0 49 45 32
81 -14 32 -49 32 -57 0z"/>
<path d="M8110 7871 c-14 -28 -13 -46 8 -70 15 -19 19 -20 36 -8 12 9 19 26
19 46 0 48 -42 69 -63 32z"/>
<path d="M5010 7693 c-50 -40 -82 -61 -203 -137 -97 -61 -114 -68 -180 -75
-65 -8 -76 -7 -112 14 -22 13 -66 46 -98 74 -67 58 -102 66 -117 26 -5 -14
-11 -96 -11 -183 -2 -152 -1 -160 30 -257 25 -76 31 -110 27 -143 l-6 -44 154
4 153 3 69 36 69 36 -2 44 c-1 24 -5 73 -9 108 -5 49 -3 65 7 72 25 16 37 9
52 -28 8 -21 29 -55 46 -77 17 -21 31 -49 31 -62 0 -20 5 -24 28 -24 39 1 91
22 144 58 26 18 58 32 73 32 35 0 45 29 17 48 -18 12 -22 24 -22 64 0 33 -9
65 -26 100 -26 51 -26 56 -20 174 7 116 6 124 -13 143 -27 27 -40 26 -81 -6z
m-24 -482 c-10 -11 -17 -30 -16 -43 3 -37 1 -41 -15 -28 -21 17 -19 47 6 82
15 21 25 26 32 19 7 -7 5 -16 -7 -30z m-387 -62 c-17 -17 -20 -28 -14 -57 6
-32 5 -34 -9 -23 -9 8 -16 20 -16 28 0 25 30 73 45 73 11 0 10 -5 -6 -21z m71
-19 c0 -5 -13 -10 -30 -10 -16 0 -30 5 -30 10 0 6 14 10 30 10 17 0 30 -4 30
-10z"/>
<path d="M8525 7580 c-33 -36 -111 -69 -154 -63 -42 6 -60 -9 -41 -32 8 -10
31 -15 64 -15 58 0 131 38 161 84 27 41 3 62 -30 26z"/>
<path d="M2557 7347 c-3 -7 -3 -26 0 -41 l6 -27 71 7 c80 7 89 12 84 45 -3 23
-8 24 -79 27 -57 2 -78 -1 -82 -11z"/>
<path d="M6253 7204 c-3 -9 -1 -111 5 -227 7 -117 14 -276 17 -354 l6 -143
-48 0 c-26 0 -208 -9 -403 -20 -491 -27 -611 -28 -645 -6 -36 24 -62 87 -80
193 -8 48 -25 118 -37 156 l-22 67 -29 -27 c-38 -37 -48 -56 -57 -117 -42
-273 -52 -308 -99 -350 -12 -11 -21 -25 -21 -31 0 -17 166 -175 183 -175 8 0
22 9 33 21 43 48 123 63 174 34 14 -8 28 -14 32 -15 9 0 -2 65 -19 114 -7 22
-10 43 -6 47 5 4 103 12 218 18 810 43 1145 67 1177 87 5 3 6 10 2 15 -4 7
-61 8 -158 3 l-153 -7 -7 194 c-7 210 -23 455 -32 507 -7 34 -21 42 -31 16z"/>
<path d="M5146 7126 c-9 -15 -40 -34 -76 -47 -68 -25 -84 -39 -44 -39 16 0 39
-11 53 -24 49 -44 149 -52 164 -13 8 20 -1 27 -34 27 -15 0 -34 3 -43 6 -28
11 -17 24 19 24 22 0 41 8 55 22 27 29 21 42 -21 49 -19 3 -40 8 -46 12 -6 4
-18 -4 -27 -17z"/>
<path d="M2612 7114 c-14 -10 -22 -26 -22 -44 0 -27 22 -60 40 -60 19 0 40 34
40 65 0 44 -27 61 -58 39z"/>
<path d="M2813 7084 c-3 -8 -1 -60 6 -115 16 -144 17 -139 -23 -139 -39 0 -50
-11 -41 -40 5 -16 15 -20 46 -20 51 0 79 27 79 78 0 48 -26 227 -34 241 -10
16 -26 13 -33 -5z"/>
<path d="M2936 7067 c-27 -20 -18 -81 12 -85 31 -5 52 15 52 47 0 46 -30 63
-64 38z"/>
<path d="M4837 7022 c-21 -23 -21 -32 1 -48 43 -33 102 -2 87 46 -8 26 -65 27
-88 2z"/>
<path d="M4305 6908 c-11 -7 -52 -44 -92 -84 -39 -39 -109 -102 -155 -139 -88
-71 -156 -151 -182 -215 -23 -58 -38 -168 -30 -225 11 -84 54 -136 54 -66 0
58 24 72 148 84 126 12 186 5 268 -35 54 -26 98 -87 88 -123 -4 -11 -7 -21 -8
-21 0 -1 -50 9 -111 21 -60 13 -112 22 -114 19 -11 -11 23 -26 160 -72 131
-44 148 -48 170 -36 14 8 55 13 97 14 l72 0 0 48 c0 55 -21 142 -51 212 -15
34 -37 61 -78 92 -69 55 -130 159 -138 241 -8 78 26 158 95 225 30 29 53 55
51 56 -2 2 -53 6 -114 9 -74 4 -117 2 -130 -5z"/>
<path d="M2536 6751 c-10 -15 42 -68 87 -90 50 -24 99 -27 117 -6 17 21 6 32
-44 39 -27 4 -60 19 -82 37 -37 29 -68 37 -78 20z"/>
<path d="M9329 6373 c-15 -39 -79 -368 -79 -408 0 -38 9 -42 195 -76 158 -29
508 -35 513 -8 3 14 -20 17 -185 22 -202 7 -483 45 -483 67 0 4 13 81 29 171
43 241 44 246 32 254 -6 3 -16 -6 -22 -22z"/>
<path d="M6026 6169 c-186 -30 -353 -212 -391 -429 -49 -272 -40 -522 34 -940
16 -91 33 -196 36 -235 4 -38 13 -104 21 -145 10 -49 17 -182 21 -385 6 -355
9 -369 70 -379 21 -4 94 -4 162 -2 93 4 130 9 149 22 29 19 81 20 115 3 30
-17 180 -24 205 -10 26 14 30 84 36 566 3 193 10 411 17 485 13 157 6 376 -16
519 -17 105 -17 170 0 174 48 11 82 -476 55 -793 -4 -58 -7 -106 -6 -107 2 -2
41 24 87 56 154 108 257 235 305 376 34 100 34 171 0 285 -26 89 -109 284
-153 359 l-26 44 54 51 c65 61 129 134 129 147 0 19 -45 -14 -122 -89 -43 -42
-79 -74 -81 -71 -126 199 -274 366 -383 432 -91 55 -221 82 -318 66z"/>
<path d="M5101 6161 c-25 -7 -42 -31 -22 -31 16 0 81 28 81 34 0 8 -28 6 -59
-3z"/>
<path d="M5123 6123 c-23 -9 -14 -20 12 -15 14 2 25 8 25 13 0 10 -17 11 -37
2z"/>
<path d="M5120 6080 c0 -5 9 -10 20 -10 11 0 20 5 20 10 0 6 -9 10 -20 10 -11
0 -20 -4 -20 -10z"/>
<path d="M4152 5958 c15 -45 388 -107 388 -64 0 9 -22 15 -77 19 -43 4 -123
18 -178 32 -112 28 -138 30 -133 13z"/>
<path d="M3774 5885 c-114 -56 -208 -190 -224 -321 -10 -83 1 -149 37 -224 29
-59 114 -150 140 -150 9 0 59 23 111 50 153 82 247 97 376 60 232 -66 436
-317 511 -628 19 -79 16 -143 -12 -245 -9 -32 -14 -59 -12 -61 2 -2 65 -52
139 -111 168 -134 328 -241 383 -256 41 -11 42 -11 76 27 18 22 57 75 86 119
30 44 86 111 125 149 69 65 72 71 66 105 -11 71 -127 250 -189 292 -18 12 -54
43 -82 69 -65 61 -298 250 -338 274 -18 10 -42 27 -56 37 -13 10 -31 19 -41
19 -20 0 -60 40 -60 61 0 17 -105 111 -170 153 -25 16 -75 44 -112 63 -37 18
-70 38 -73 43 -10 17 167 12 216 -5 24 -9 70 -19 101 -22 40 -4 58 -10 58 -20
0 -23 89 -56 148 -55 29 1 57 4 62 7 5 3 1 20 -10 38 -44 77 -69 244 -52 350
7 47 6 60 -4 64 -23 8 -16 24 24 58 20 18 35 36 32 39 -3 3 -26 -2 -50 -11
-36 -12 -69 -14 -157 -9 -108 6 -113 5 -149 -19 -20 -14 -55 -30 -78 -37 -57
-17 -220 -11 -341 13 -120 23 -115 23 -115 4 0 -15 129 -61 203 -71 100 -13
107 -21 56 -70 -30 -28 -33 -29 -137 -29 l-107 0 -100 50 c-120 60 -176 111
-194 178 -8 26 -19 47 -25 47 -6 -1 -34 -12 -62 -25z"/>
<path d="M5032 5746 c-12 -20 -14 -202 -4 -253 6 -28 21 -75 32 -106 21 -55
23 -57 58 -57 45 0 95 -41 117 -95 20 -47 19 -68 -9 -123 -24 -48 -40 -60
-108 -83 -20 -7 -34 -17 -31 -22 3 -5 73 -65 157 -134 151 -126 212 -163 309
-189 74 -20 100 -18 93 4 -16 48 -66 383 -77 510 -11 135 -7 401 7 496 5 27 3
37 -5 32 -24 -15 -354 -6 -444 12 -61 13 -90 15 -95 8z"/>
<path d="M2587 5563 c-8 -204 -39 -326 -117 -472 -16 -29 -27 -58 -24 -62 22
-36 108 116 144 251 17 64 24 123 27 238 3 83 2 163 -1 177 -14 57 -23 16 -29
-132z"/>
<path d="M1713 5533 c3 -93 10 -193 16 -223 5 -30 12 -76 16 -101 l6 -47 -88
-21 c-127 -31 -304 -60 -409 -68 l-91 -6 -6 69 c-4 38 -7 140 -7 227 0 122 -3
158 -12 155 -7 -3 -17 -29 -21 -59 -10 -64 -2 -361 11 -404 l9 -30 79 3 c98 3
256 25 377 53 51 12 117 27 147 34 64 14 63 7 37 165 -9 52 -21 154 -27 225
-14 168 -19 195 -32 195 -8 0 -9 -48 -5 -167z"/>
<path d="M7905 5410 c-8 -13 20 -36 85 -71 33 -17 60 -35 60 -38 -1 -8 -70
-100 -141 -187 -73 -90 -79 -103 -79 -164 0 -49 26 -120 50 -135 5 -3 -15 -34
-44 -69 -56 -66 -99 -134 -111 -175 -6 -20 -2 -29 21 -48 l29 -22 -35 -37
c-19 -20 -120 -114 -225 -209 -314 -286 -521 -506 -620 -661 -153 -239 -178
-466 -69 -630 126 -190 333 -269 614 -235 63 7 114 -8 170 -50 45 -34 142 -67
237 -80 118 -16 193 -4 833 136 140 31 291 63 335 71 110 21 298 70 367 95
l57 21 -18 37 c-22 43 -74 202 -94 286 -30 124 -34 108 35 161 35 26 80 58
101 70 l39 22 95 -110 c128 -148 236 -303 289 -416 24 -51 49 -94 56 -96 41
-11 284 -66 291 -66 4 0 7 62 7 138 l0 138 -92 84 c-51 46 -151 138 -223 205
-71 68 -165 153 -207 190 -43 37 -78 70 -78 73 0 3 23 39 52 80 101 147 152
317 151 502 -1 202 -45 368 -154 580 -86 167 -80 162 -162 149 -176 -28 -621
79 -1065 255 -79 31 -167 61 -197 67 -82 15 -157 43 -261 98 -52 27 -96 46
-99 41z"/>
<path d="M2861 5202 c-20 -14 -48 -17 -158 -16 -132 1 -133 1 -138 -23 -3 -12
-8 -35 -12 -50 -4 -16 -6 -38 -5 -50 1 -22 -8 -27 -44 -26 -7 0 -18 -10 -25
-23 -21 -40 45 -264 124 -419 45 -89 50 -93 125 -100 96 -9 233 -32 332 -56
193 -45 227 -55 259 -76 18 -13 37 -20 42 -17 5 3 9 0 9 -6 0 -6 5 -8 10 -5 6
3 10 1 10 -4 0 -17 30 -13 36 4 8 19 24 10 24 -13 0 -15 -2 -15 -10 -2 -5 8
-10 11 -10 5 1 -5 7 -19 15 -29 8 -11 15 -14 15 -8 0 17 16 15 34 -4 9 -8 20
-13 25 -10 5 3 12 -1 15 -10 3 -8 2 -12 -4 -9 -22 13 -30 -7 -10 -25 25 -22
26 -37 0 -45 -11 -3 -20 -11 -20 -16 0 -5 -12 -9 -27 -10 -16 0 -37 -5 -48
-10 -16 -7 -14 -8 10 -4 17 2 68 9 115 15 47 7 92 14 100 17 8 4 20 5 26 4 6
-1 17 13 25 31 7 18 21 41 30 51 9 10 29 43 45 75 40 79 41 169 3 208 -15 14
-37 26 -50 26 -13 0 -127 -3 -254 -7 -289 -9 -299 -7 -361 78 -99 134 -161
294 -194 500 -7 43 -18 77 -24 76 -6 0 -22 -8 -35 -17z m33 -37 c7 -28 6 -29
-7 -10 -8 10 -12 25 -10 33 7 16 9 14 17 -23z m101 -355 c3 -5 2 -10 -4 -10
-5 0 -13 5 -16 10 -3 6 -2 10 4 10 5 0 13 -4 16 -10z m-434 -23 c-10 -9 -11
-8 -5 6 3 10 9 15 12 12 3 -3 0 -11 -7 -18z m1052 -244 c-7 -2 -19 -2 -25 0
-7 3 -2 5 12 5 14 0 19 -2 13 -5z m-278 -31 c-3 -3 -11 0 -18 7 -9 10 -8 11 6
5 10 -3 15 -9 12 -12z m342 -74 c-3 -8 -6 -5 -6 6 -1 11 2 17 5 13 3 -3 4 -12
1 -19z m-97 -229 c0 -16 -4 -28 -9 -25 -8 5 -3 56 5 56 2 0 4 -14 4 -31z"/>
<path d="M3312 5193 c-20 -51 0 -193 28 -193 17 0 110 134 110 158 0 43 -122
73 -138 35z"/>
<path d="M3956 5114 c-33 -13 -64 -28 -69 -33 -14 -14 6 -58 48 -106 l35 -40
24 27 c47 52 71 180 33 177 -6 0 -39 -12 -71 -25z"/>
<path d="M2520 5060 c0 -5 5 -10 11 -10 5 0 7 5 4 10 -3 6 -8 10 -11 10 -2 0
-4 -4 -4 -10z"/>
<path d="M4251 5040 c-33 -54 -55 -184 -55 -325 0 -112 3 -138 22 -187 53
-133 139 -198 262 -198 67 0 130 22 138 49 4 11 -12 12 -79 9 -105 -6 -144 4
-192 50 -76 74 -112 191 -97 321 10 90 37 198 52 207 28 18 141 -154 164 -249
5 -20 10 -25 19 -17 9 7 10 24 4 64 -16 97 -64 179 -148 254 -33 28 -62 52
-65 52 -4 0 -15 -14 -25 -30z"/>
<path d="M3731 4878 c-25 -59 -53 -82 -89 -75 -16 3 -33 2 -38 -3 -5 -4 -34
-11 -64 -14 -130 -13 -135 -16 -98 -52 23 -23 28 -25 49 -13 13 7 42 14 64 15
120 9 140 14 162 42 13 15 32 38 43 52 13 15 20 35 18 54 -5 45 -26 43 -47 -6z"/>
<path d="M577 4415 c-46 -93 -67 -199 -67 -332 0 -278 91 -498 287 -698 71
-73 88 -84 188 -129 61 -27 187 -73 280 -103 372 -120 661 -216 673 -226 6 -5
12 -16 12 -24 0 -12 -7 -14 -32 -9 -87 17 -858 280 -927 316 -42 22 -84 40
-94 40 -26 0 -92 -65 -141 -139 -55 -82 -126 -242 -129 -289 -2 -35 0 -37 65
-68 94 -46 219 -89 377 -129 75 -19 145 -37 156 -40 533 -137 991 -205 1204
-178 109 14 161 39 259 126 135 118 180 209 169 342 -12 153 -49 219 -213 382
-134 133 -344 292 -686 520 -137 91 -248 169 -248 174 0 17 44 9 89 -18 139
-81 548 -363 687 -475 126 -100 282 -257 335 -336 60 -90 82 -162 82 -267 0
-89 -20 -162 -59 -221 -14 -20 -22 -39 -19 -43 4 -3 73 -6 153 -5 161 1 214
14 285 68 47 36 113 139 143 223 33 95 33 215 0 296 -76 185 -163 271 -601
591 -187 137 -356 261 -375 274 -19 14 -51 40 -71 57 l-35 32 -245 6 c-406 12
-482 26 -614 112 -45 29 -60 34 -140 38 -132 8 -365 45 -464 73 -47 14 -123
45 -168 70 -46 24 -84 44 -86 44 -1 0 -15 -25 -30 -55z"/>
<path d="M3004 4339 c-12 -20 14 -31 122 -49 156 -26 244 -34 244 -22 0 15
-44 28 -200 56 -167 30 -157 29 -166 15z"/>
<path d="M3032 4230 c2 -8 18 -17 34 -22 63 -17 266 -48 275 -42 6 3 9 13 7
22 -2 13 -25 19 -98 29 -203 26 -223 27 -218 13z"/>
<path d="M5475 3804 c-18 -8 -58 -13 -103 -12 -40 0 -78 -4 -83 -9 -18 -18 10
-27 92 -27 63 -1 83 3 105 20 28 20 43 45 27 43 -4 0 -21 -7 -38 -15z"/>
<path d="M3773 3574 c-5 -10 -8 -44 -8 -74 0 -57 35 -144 78 -192 11 -13 29
-33 39 -44 47 -53 79 -339 63 -569 l-7 -107 -62 -62 c-47 -47 -74 -66 -111
-77 -70 -20 -134 -17 -184 9 -53 28 -61 28 -61 -2 0 -17 11 -31 38 -48 53 -33
160 -30 257 7 39 15 77 27 86 28 10 1 32 32 55 76 l39 76 0 326 0 326 -72 76
c-77 83 -108 136 -122 210 -10 56 -18 67 -28 41z"/>
<path d="M6291 3484 c0 -11 3 -14 6 -6 3 7 2 16 -1 19 -3 4 -6 -2 -5 -13z"/>
<path d="M4787 3436 c-113 -41 -170 -138 -184 -313 l-6 -83 -78 -39 -78 -38 2
213 c2 183 0 215 -14 229 -15 15 -17 -1 -23 -185 -10 -276 -34 -470 -82 -659
-8 -30 -12 -57 -9 -59 3 -3 15 -1 28 5 12 6 58 23 102 38 82 28 104 37 212 87
52 24 72 28 123 25 33 -3 60 -2 60 0 0 11 -32 35 -64 48 -42 18 -59 41 -90
125 -50 132 -57 234 -25 356 25 98 58 147 116 175 41 20 56 21 154 16 107 -6
109 -5 98 15 -27 50 -158 74 -242 44z"/>
<path d="M5245 3430 c10 -11 20 -20 23 -20 3 0 -3 9 -13 20 -10 11 -20 20 -23
20 -3 0 3 -9 13 -20z"/>
<path d="M474 3390 c-87 -44 -289 -241 -422 -411 l-52 -67 0 -96 0 -96 63 0
c34 0 91 5 127 10 63 10 231 61 258 79 8 5 24 37 36 72 11 35 44 102 71 148
62 106 197 248 243 257 63 13 40 31 -103 78 -146 49 -171 52 -221 26z"/>
<path d="M5714 3315 c-9 -23 4 -33 61 -45 62 -13 116 -5 148 20 30 25 15 36
-32 22 -53 -16 -113 -15 -137 3 -24 18 -33 19 -40 0z"/>
<path d="M6292 3230 c0 -19 2 -27 5 -17 2 9 2 25 0 35 -3 9 -5 1 -5 -18z"/>
<path d="M6261 3074 c0 -11 3 -14 6 -6 3 7 2 16 -1 19 -3 4 -6 -2 -5 -13z"/>
<path d="M5490 3055 c0 -5 5 -17 10 -25 5 -8 10 -10 10 -5 0 6 -5 17 -10 25
-5 8 -10 11 -10 5z"/>
<path d="M6316 3034 c-15 -14 -14 -34 1 -34 4 0 4 3 0 6 -3 4 4 15 16 25 12
10 17 18 10 19 -6 0 -19 -7 -27 -16z"/>
<path d="M591 2275 c-21 -20 -49 -57 -62 -83 -20 -41 -23 -62 -23 -172 0 -108
3 -136 26 -202 34 -102 102 -201 199 -291 92 -86 84 -60 124 -392 14 -116 27
-220 30 -232 12 -50 -12 -18 -56 75 -56 115 -173 284 -257 367 -131 129 -325
206 -412 162 -38 -19 -63 -81 -63 -156 0 -54 6 -75 43 -146 23 -46 58 -103 78
-126 81 -95 287 -222 411 -254 38 -10 102 -16 157 -16 61 0 95 -3 102 -12 16
-21 82 -648 82 -787 0 -5 10 -10 21 -10 19 0 21 4 15 31 -3 17 -11 117 -17
222 -6 106 -21 275 -34 377 -13 102 -20 188 -16 193 4 4 33 14 66 22 155 41
342 150 442 259 61 67 130 186 163 282 40 116 17 194 -65 216 -25 7 -45 16
-45 20 0 18 -69 6 -127 -21 -105 -50 -207 -168 -292 -337 -43 -86 -120 -296
-121 -329 0 -5 -9 -21 -20 -35 l-20 -25 0 30 c0 28 -25 223 -56 445 l-15 104
30 23 c55 43 101 195 101 332 0 122 -31 213 -113 336 -109 164 -194 204 -276
130z"/>
<path d="M3508 2080 c-161 -28 -288 -92 -411 -209 -197 -187 -279 -457 -223
-731 9 -45 36 -116 66 -176 100 -204 288 -359 503 -414 76 -19 118 -19 1665
-21 1409 -2 1595 0 1657 13 246 55 444 217 545 442 54 121 65 179 64 331 0
128 -3 148 -30 230 -44 132 -103 226 -204 326 -71 71 -103 94 -181 133 -181
89 -10 81 -1809 82 -877 1 -1616 -2 -1642 -6z m398 -536 c67 -50 92 -124 68
-204 -24 -80 -84 -117 -197 -121 l-67 -2 0 -63 0 -62 -40 -4 -40 -4 0 244 0
244 124 -4 c107 -3 128 -6 152 -24z m1144 -9 c18 -47 -17 -83 -63 -66 -56 21
-41 91 19 91 28 0 36 -5 44 -25z m518 13 c20 -20 14 -56 -13 -74 -23 -15 -27
-15 -50 0 -44 29 -28 86 25 86 14 0 31 -5 38 -12z m-784 -71 l0 -47 53 0 53 0
0 -40 0 -40 -50 0 -50 0 0 -95 c0 -92 1 -95 24 -101 14 -3 33 -3 44 0 16 5 22
0 30 -24 9 -25 8 -31 -8 -40 -21 -11 -99 -14 -125 -4 -32 13 -45 59 -45 164
l0 100 -38 0 -38 0 4 40 c4 38 6 40 38 40 33 0 34 1 34 39 0 34 4 41 28 49 41
15 47 9 46 -41z m-514 -66 c39 -28 51 -80 48 -210 l-3 -116 -32 -3 c-25 -2
-33 1 -33 12 0 19 1 19 -43 1 -73 -30 -143 -10 -172 51 -20 42 -19 62 4 100
24 40 75 58 147 52 58 -5 65 3 44 43 -14 24 -87 26 -132 3 -34 -18 -45 -12
-54 32 -6 33 -5 34 101 58 35 8 99 -4 125 -23z m1129 -11 l32 -22 -23 -27
c-13 -14 -24 -28 -25 -30 -1 -1 -12 4 -25 13 -13 9 -43 16 -69 16 -40 0 -51
-4 -73 -31 -57 -68 -18 -159 69 -159 28 0 51 7 70 21 l27 22 26 -26 c22 -22
24 -28 12 -42 -25 -30 -88 -55 -137 -55 -131 1 -211 135 -152 256 45 95 181
127 268 64z m899 13 c40 -25 52 -71 52 -202 0 -115 -1 -119 -22 -125 -36 -9
-48 -7 -48 9 0 18 -1 18 -36 0 -36 -19 -85 -19 -129 -1 -41 18 -55 42 -55 99
0 78 60 116 166 104 40 -4 44 -3 44 17 0 12 -5 27 -12 34 -17 17 -107 15 -140
-2 -29 -15 -32 -14 -48 28 -9 24 -7 28 18 38 74 30 165 30 210 1z m-1828 -10
c1 -24 2 -26 13 -12 18 24 52 39 86 39 24 0 31 -4 31 -19 0 -33 -11 -51 -32
-51 -24 0 -59 -18 -75 -39 -8 -10 -12 -55 -13 -122 l0 -107 -40 -4 -40 -4 0
116 c0 63 -3 138 -6 167 -7 55 -3 59 54 62 18 1 22 -4 22 -26z m574 9 c-1 -6
-2 -81 -2 -166 l-2 -154 -32 -5 c-18 -2 -34 -4 -34 -3 -1 0 -5 76 -9 168 l-7
166 28 5 c43 6 59 3 58 -11z m526 -151 l0 -169 -40 -4 -40 -4 0 168 c0 165 0
167 23 171 61 12 57 23 57 -162z m160 149 c0 -11 5 -20 10 -20 6 0 10 4 10 8
0 15 49 32 91 32 101 0 165 -78 157 -191 -5 -66 -24 -100 -78 -136 -39 -27
-125 -32 -156 -8 -10 8 -21 15 -24 15 -3 0 -5 -35 -5 -77 l0 -78 -42 -3 -43
-3 0 235 0 235 23 4 c48 9 57 7 57 -13z m780 -1 l0 -20 26 20 c17 13 41 21 66
21 35 0 39 -2 34 -20 -3 -11 -9 -29 -12 -40 -4 -15 -11 -19 -29 -14 -19 5 -32
-1 -55 -24 -30 -30 -30 -32 -30 -135 l0 -105 -37 -4 c-21 -3 -39 -5 -40 -4 -1
1 -3 76 -3 166 l-2 165 24 6 c44 13 58 10 58 -12z"/>
<path d="M3710 1400 l0 -100 58 0 c100 0 152 56 123 132 -15 39 -48 57 -119
62 l-62 5 0 -99z"/>
<path d="M4110 1215 c-7 -8 -10 -25 -6 -40 6 -22 11 -25 55 -25 53 0 81 20 81
58 0 20 -5 22 -59 22 -40 0 -63 -5 -71 -15z"/>
<path d="M6148 1219 c-21 -12 -23 -40 -6 -57 15 -15 82 -16 109 -2 12 7 19 21
19 40 0 29 -1 30 -52 30 -29 0 -61 -5 -70 -11z"/>
<path d="M5794 1351 c-32 -14 -64 -60 -64 -93 0 -95 100 -139 166 -73 33 33
34 103 2 139 -25 29 -72 40 -104 27z"/>
<path d="M9536 1783 c-9 -53 10 -288 39 -478 13 -88 40 -286 60 -440 20 -154
42 -314 49 -355 15 -84 7 -137 -13 -87 -6 16 -11 34 -11 42 0 7 -17 56 -39
108 -112 275 -360 574 -622 750 -160 106 -355 201 -512 248 l-29 8 7 -52 c58
-456 198 -940 346 -1201 59 -105 175 -262 220 -300 l31 -26 589 0 589 0 0 825
c0 717 -2 824 -15 819 -19 -8 -157 -176 -218 -267 -113 -169 -216 -429 -266
-677 -32 -162 -32 -162 -56 45 -16 139 -49 396 -85 655 -10 74 -24 196 -31
270 -13 143 -23 176 -33 113z"/>
<path d="M1489 811 c-91 -36 -188 -118 -253 -216 -63 -94 -152 -360 -171 -510
-4 -27 -9 -58 -12 -67 -4 -16 6 -18 119 -18 l123 0 70 47 c206 137 332 271
408 431 28 59 32 77 32 152 0 79 -2 88 -29 123 -43 56 -91 77 -173 77 -41 -1
-86 -8 -114 -19z"/>
<path d="M111 670 c-39 -17 -50 -41 -51 -105 0 -175 120 -376 313 -521 l59
-44 259 0 c221 0 259 2 259 15 0 28 -50 128 -106 212 -156 234 -449 438 -644
449 -36 2 -76 -1 -89 -6z"/>
</g>
</svg>
